/* XPM */
static char * ARTI5H_xpm[] = {
"128 64 2 1",
" 	g None",
".	g #000000",
"                                                                                                                                ",
"                                                                                                                                ",
"                                                                                                                                ",
"                                                                                                                                ",
"                                                                                                                                ",
"                                                                                                                                ",
"                                                                                                                                ",
"                                                                                                                                ",
"                                                                                                                                ",
"                                                                                                                                ",
"                                                                                                                                ",
"                                                                                                                                ",
"                                                                                                                                ",
"                                                                                                                                ",
"                                                                                                                                ",
"                                                                                                                                ",
"                                                                                                                                ",
"                                                                                                                   .....        ",
"                                                                                                                 .......        ",
"                                                                                                                ........        ",
"                                ..                                      ...                           .        ........         ",
"                          ........                                     ....                         ....      ....              ",
"                      ...........                                      ....                  ..........       ...               ",
"                     ............                                       ...                 ...........      ....               ",
"                    ....    .....                         ..                                ..........       ....               ",
"                   ...     ......                       ....                                ..               ...                ",
"                   ...    .......                       ....                               ...              ....                ",
"                  ...     .......                 ..    ....                               ...              ....                ",
"                  ....   ... ....          ...  .....   ...          ....                  .....            ....    ...         ",
"                  ....  ... ....         ..... ................    ......                  .......          ....  ......        ",
"                   ..   ... ....        .......................   .......                  .......         ....  .......        ",
"                       ...  ....      ............  ...........  ........                   .......        .............        ",
"                      ...   ....      .. .......      ....       .. ....                      .....        ....... ....         ",
"                      ...   ....      .  ......       ....       .  ....                       .....       .....   ....         ",
"                     ...    ....         .....        ....          ....                        ....       ....    ....         ",
"                    ...     ....         ....         ....          ....                        ....      .....    ....         ",
"                    ............         ....        ....          ....                         ....      ....    ....          ",
"                   ............         ....         ....          ....                         ...       ....    ....          ",
"                  .............         ....         ....          ....                         ...       ...     ....          ",
"                  ...      ....         ....         ....    .    ....                         ....      ....    ....           ",
"                 ...       ....         ....        ....    ...   ....  .                      ...       ....    ....           ",
"                ...        ....        ....         ....  ....    .... ...                    ...        ....    .... ...       ",
"               ....        ....        ....         .........     .......            ...     ...         ....    ........       ",
"               ...        .....        ....         ........      ......            ...........         ....     .......        ",
"              ...         .........    ....         ......        .....              .........          ....     .....          ",
"             ...          .........    ...           ...          ...                 ......             ...      ..            ",
"       ... ....                                                                                                                 ",
"       .......                                                                                                                  ",
"       ......                                                                                                                   ",
"       .....                                                                                                                    ",
"                                                                                                                                ",
"                                                                                                                                ",
"                                                                                                                                ",
"                                                                                                                                ",
"                                                                                                                                ",
"                                                                                                                                ",
"                                                                                                                                ",
"                                                                                                                                ",
"                                                                                                                                ",
"                                                                                                                                ",
"                                                                                                                                ",
"                                                                                                                                ",
"                                                                                                                                ",
"                                                                                                                                "};
